<svg id="Iconly_Bold_Plus" data-name="Iconly/Bold/Plus" xmlns="http://www.w3.org/2000/svg" width="44" height="44" viewBox="0 0 44 44">
  <g id="Plus" transform="translate(0 0)">
    <path id="Plus-2" data-name="Plus" d="M32.274,44H11.726C8,44,5.078,42.969,3.049,40.934S0,35.992,0,32.274V11.726C0,7.992,1.026,5.073,3.049,3.049S7.992,0,11.726,0H32.253C35.98,0,38.9,1.026,40.931,3.049S44,8,44,11.726V32.274C44,39.726,39.726,44,32.274,44ZM13.925,20.153A1.8,1.8,0,0,0,12.1,21.978a1.845,1.845,0,0,0,1.826,1.847h6.227v6.227a1.826,1.826,0,1,0,3.651,0V23.826h6.249a1.837,1.837,0,0,0,0-3.673H23.8V13.947a1.826,1.826,0,1,0-3.651,0v6.205Z" transform="translate(0 0)" fill="#200e32"/>
  </g>
</svg>
