<svg id="Iconly_Bold_Bag" data-name="Iconly/Bold/Bag" xmlns="http://www.w3.org/2000/svg" width="33" height="33" viewBox="0 0 33 33">
  <g id="Iconly_Bold_Buy" data-name="Iconly/Bold/Buy">
    <g id="Buy" transform="translate(-0.5 -0.68)">
      <path id="Buy-2" data-name="Buy" d="M25,30.458A2.5,2.5,0,1,1,27.5,33,2.532,2.532,0,0,1,25,30.458Zm-18.548,0A2.5,2.5,0,1,1,8.953,33,2.532,2.532,0,0,1,6.448,30.458Zm2.77-5.221A4.14,4.14,0,0,1,6.369,24.1a4.316,4.316,0,0,1-1.339-2.8L3.513,2.943l-2.49-.438A1.264,1.264,0,0,1,1.262,0a1.348,1.348,0,0,1,.19.015l3.932.6A1.267,1.267,0,0,1,6.406,1.764l.313,3.772a1.018,1.018,0,0,0,1.005.944H29.991a2.786,2.786,0,0,1,2.326,1.129,3.713,3.713,0,0,1,.627,2.894L31.377,21.549a4.26,4.26,0,0,1-4.171,3.687Zm9.546-11.264A1.251,1.251,0,0,0,20,15.235h4.566A1.251,1.251,0,0,0,25.8,13.973a1.238,1.238,0,0,0-1.237-1.264H20A1.238,1.238,0,0,0,18.763,13.973Z" transform="translate(0.5 0.68)" fill="#200e32"/>
    </g>
  </g>
</svg>
