<svg xmlns="http://www.w3.org/2000/svg" width="24" height="24" viewBox="0 0 24 24">
  <g id="Group_877" data-name="Group 877" transform="translate(0 0.24)">
    <path id="Path_839" data-name="Path 839" d="M0,0H21.76V21.76H0Z" fill="none"/>
    <g id="Layer_2" data-name="Layer 2" transform="translate(0 -0.24)">
      <g id="eye-off-2">
        <rect id="Rectangle_528" data-name="Rectangle 528" width="24" height="24" opacity="0"/>
        <path id="Path_838" data-name="Path 838" d="M17.81,13.39A8.93,8.93,0,0,0,21,7.62a1.007,1.007,0,1,0-2-.24,7.07,7.07,0,0,1-14,0,1.007,1.007,0,1,0-2,.24,8.93,8.93,0,0,0,3.18,5.77l-2.3,2.32a1,1,0,0,0,1.41,1.41l2.61-2.6a9.06,9.06,0,0,0,3.1.92V19a1,1,0,0,0,2,0V15.44a9.06,9.06,0,0,0,3.1-.92l2.61,2.6a1,1,0,0,0,1.41-1.41Z"/>
      </g>
    </g>
  </g>
</svg>
