<svg id="Iconly_Bold_Notification" data-name="Iconly/Bold/Notification" xmlns="http://www.w3.org/2000/svg" width="23.375" height="27.5" viewBox="0 0 23.375 27.5">
  <g id="Notification">
    <path id="Notification-2" data-name="Notification" d="M10.977,27.454A4.976,4.976,0,0,1,8.62,26.447a2.133,2.133,0,0,1-.957-1.612c0-.693.635-1.01,1.223-1.146a35.688,35.688,0,0,1,5.564,0c.588.136,1.223.453,1.223,1.146a2.136,2.136,0,0,1-.955,1.614,5,5,0,0,1-2.355,1.006,5.494,5.494,0,0,1-.7.046A5.043,5.043,0,0,1,10.977,27.454Zm-5.8-5.8A6.235,6.235,0,0,1,1.188,19.71,4.97,4.97,0,0,1,0,16.439a4.631,4.631,0,0,1,1-3.177A5.221,5.221,0,0,0,2.466,9.344V8.759A7.734,7.734,0,0,1,4.231,3.454,9.725,9.725,0,0,1,11.626,0h.124a9.682,9.682,0,0,1,7.517,3.609,7.625,7.625,0,0,1,1.643,5.15v.585a5.347,5.347,0,0,0,1.46,3.918,4.625,4.625,0,0,1,1,3.177,4.969,4.969,0,0,1-1.187,3.271A6.241,6.241,0,0,1,18.2,21.653c-2.161.183-4.323.339-6.513.339A57.322,57.322,0,0,1,5.175,21.653Z" fill="#2b0236"/>
  </g>
</svg>
