<svg id="Iconly_Bold_Filter" data-name="Iconly/Bold/Filter" xmlns="http://www.w3.org/2000/svg" width="27.5" height="24.5" viewBox="0 0 27.5 24.5">
  <g id="Filter">
    <path id="Filter-2" data-name="Filter" d="M18.043,19.844A4.729,4.729,0,1,1,22.771,24.5,4.693,4.693,0,0,1,18.043,19.844Zm-15.97,2.1a2.042,2.042,0,1,1,0-4.083h9.041a2.042,2.042,0,1,1,0,4.083ZM0,4.656A4.693,4.693,0,0,1,4.729,0,4.692,4.692,0,0,1,9.457,4.656,4.693,4.693,0,0,1,4.729,9.314,4.693,4.693,0,0,1,0,4.656ZM16.387,6.7a2.041,2.041,0,1,1,0-4.082h9.041a2.041,2.041,0,1,1,0,4.082Z" fill="#2b0236"/>
  </g>
</svg>
