<svg xmlns="http://www.w3.org/2000/svg" width="48" height="52" viewBox="0 0 48 52">
  <g id="Group_1696" data-name="Group 1696" transform="translate(-304)">
    <g id="Path_876" data-name="Path 876" transform="translate(304)" fill="#fff">
      <path d="M 40 51.5 L 8 51.5 C 3.864490032196045 51.5 0.5 48.1355094909668 0.5 44 L 0.5 8 C 0.5 3.864490032196045 3.864490032196045 0.5 8 0.5 L 40 0.5 C 44.1355094909668 0.5 47.5 3.864490032196045 47.5 8 L 47.5 44 C 47.5 48.1355094909668 44.1355094909668 51.5 40 51.5 Z" stroke="none"/>
      <path d="M 8 1 C 4.140190124511719 1 1 4.140190124511719 1 8 L 1 44 C 1 47.85980987548828 4.140190124511719 51 8 51 L 40 51 C 43.85980987548828 51 47 47.85980987548828 47 44 L 47 8 C 47 4.140190124511719 43.85980987548828 1 40 1 L 8 1 M 8 0 L 40 0 C 44.41828155517578 0 48 3.581718444824219 48 8 L 48 44 C 48 48.41828155517578 44.41828155517578 52 40 52 L 8 52 C 3.581718444824219 52 0 48.41828155517578 0 44 L 0 8 C 0 3.581718444824219 3.581718444824219 0 8 0 Z" stroke="none" fill="#2b0236"/>
    </g>
    <g id="Iconly_Light-outline_Filter_2" data-name="Iconly/Light-outline/Filter 2" transform="translate(315 13)">
      <g id="Filter_2" data-name="Filter 2">
        <path id="Filter_2-2" data-name="Filter 2" d="M9.727,26a.908.908,0,0,1-.907-.908V15.6L.716,6.664A2.783,2.783,0,0,1,.01,5.028L0,4.8V2.742A2.717,2.717,0,0,1,2.686,0h20.63A2.717,2.717,0,0,1,26,2.742v2.01A2.787,2.787,0,0,1,25.207,6.7l-8.8,8.919v6.754A.9.9,0,0,1,16,23.13l-.114.064-5.776,2.719A.9.9,0,0,1,9.727,26ZM2.686,1.814a.9.9,0,0,0-.872.929V4.8a.953.953,0,0,0,.246.646l8.339,9.2a.9.9,0,0,1,.236.609v8.412L14.6,21.8V15.25a.9.9,0,0,1,.169-.529l.091-.108,9.059-9.187a.963.963,0,0,0,.27-.673V2.742a.9.9,0,0,0-.871-.929Z" fill="#200e32"/>
      </g>
    </g>
  </g>
</svg>
