<svg id="Iconly_Bold_Arrow_-_Left_Circle" data-name="Iconly/Bold/Arrow - Left Circle" xmlns="http://www.w3.org/2000/svg" width="27.5" height="27.5" viewBox="0 0 27.5 27.5">
  <g id="Arrow_-_Left_Circle" data-name="Arrow - Left Circle">
    <path id="Arrow_-_Left_Circle-2" data-name="Arrow - Left Circle" d="M13.75,27.5a13.75,13.75,0,0,1,0-27.5l.385,0a13.75,13.75,0,0,1-.385,27.5ZM15.739,7.94a1,1,0,0,0-.724.31l-4.8,4.771a1.028,1.028,0,0,0,0,1.458l4.8,4.772a.969.969,0,0,0,.715.3,1.024,1.024,0,0,0,.729-1.76L12.4,13.75l4.057-4.043a1.025,1.025,0,0,0,.014-1.457A1.032,1.032,0,0,0,15.739,7.94Z" fill="#200e32"/>
  </g>
</svg>
