<svg id="Group_877" data-name="Group 877" xmlns="http://www.w3.org/2000/svg" width="21.76" height="21.76" viewBox="0 0 21.76 21.76">
  <path id="Path_839" data-name="Path 839" d="M0,0H21.76V21.76H0Z" fill="none"/>
  <path id="Path_840" data-name="Path 840" d="M11.973,9A10.723,10.723,0,0,0,2,15.8a10.714,10.714,0,0,0,19.946,0A10.718,10.718,0,0,0,11.973,9Zm0,11.333A4.533,4.533,0,1,1,16.506,15.8,4.535,4.535,0,0,1,11.973,20.333Zm0-7.253a2.72,2.72,0,1,0,2.72,2.72A2.722,2.722,0,0,0,11.973,13.08Z" transform="translate(-1.093 -4.92)"/>
</svg>
