<svg id="Group_1695" data-name="Group 1695" xmlns="http://www.w3.org/2000/svg" width="48" height="52" viewBox="0 0 48 52">
  <g id="Path_881" data-name="Path 881" fill="#eee">
    <path d="M 40 51 L 8 51 C 4.140190124511719 51 1 47.85980987548828 1 44 L 1 8 C 1 4.140190124511719 4.140190124511719 1 8 1 L 40 1 C 43.85980987548828 1 47 4.140190124511719 47 8 L 47 44 C 47 47.85980987548828 43.85980987548828 51 40 51 Z" stroke="none"/>
    <path d="M 8 2 C 4.69158935546875 2 2 4.69158935546875 2 8 L 2 44 C 2 47.30841064453125 4.69158935546875 50 8 50 L 40 50 C 43.30841064453125 50 46 47.30841064453125 46 44 L 46 8 C 46 4.69158935546875 43.30841064453125 2 40 2 L 8 2 M 8 0 L 40 0 C 44.41828155517578 0 48 3.581718444824219 48 8 L 48 44 C 48 48.41828155517578 44.41828155517578 52 40 52 L 8 52 C 3.581718444824219 52 0 48.41828155517578 0 44 L 0 8 C 0 3.581718444824219 3.581718444824219 0 8 0 Z" stroke="none" fill="#2b0236"/>
  </g>
  <g id="Iconly_Light_Scan" data-name="Iconly/Light/Scan" transform="translate(7.802 13)">
    <g id="Scan" transform="translate(0 0)">
      <path id="Stroke_1" data-name="Stroke 1" d="M32.1.524H0" transform="translate(0 13.928)" fill="none" stroke="#200e32" stroke-linecap="round" stroke-linejoin="round" stroke-miterlimit="10" stroke-width="1.5"/>
      <path id="Stroke_3" data-name="Stroke 3" d="M7.547,8.017V5.051A5.065,5.065,0,0,0,2.5,0H0" transform="translate(21.692)" fill="none" stroke="#200e32" stroke-linecap="round" stroke-linejoin="round" stroke-miterlimit="10" stroke-width="1.5"/>
      <path id="Stroke_5" data-name="Stroke 5" d="M0,8.017V5.044A5.043,5.043,0,0,1,5.038,0L7.59,0" transform="translate(2.858)" fill="none" stroke="#200e32" stroke-linecap="round" stroke-linejoin="round" stroke-miterlimit="10" stroke-width="1.5"/>
      <path id="Stroke_7" data-name="Stroke 7" d="M7.547,0V6.882A5.066,5.066,0,0,1,2.5,11.933H0" transform="translate(21.692 14.452)" fill="none" stroke="#200e32" stroke-linecap="round" stroke-linejoin="round" stroke-miterlimit="10" stroke-width="1.5"/>
      <path id="Stroke_9" data-name="Stroke 9" d="M0,0V6.889a5.043,5.043,0,0,0,5.038,5.043l2.552,0" transform="translate(2.858 14.452)" fill="none" stroke="#200e32" stroke-linecap="round" stroke-linejoin="round" stroke-miterlimit="10" stroke-width="1.5"/>
    </g>
  </g>
</svg>
