<svg xmlns="http://www.w3.org/2000/svg" width="29.001" height="29.001" viewBox="0 0 29.001 29.001">
  <g id="Iconly_Light_Category" data-name="Iconly/Light/Category" transform="translate(0.75 0.75)">
    <g id="Category">
      <path id="Stroke_1" data-name="Stroke 1" d="M3.367,0H7.859a3.382,3.382,0,0,1,3.366,3.4V7.926a3.383,3.383,0,0,1-3.366,3.4H3.367A3.383,3.383,0,0,1,0,7.926V3.4A3.382,3.382,0,0,1,3.367,0Z" transform="translate(16.276)" fill="none" stroke="#f6ea04" stroke-linecap="round" stroke-linejoin="round" stroke-miterlimit="10" stroke-width="1.5"/>
      <path id="Stroke_3" data-name="Stroke 3" d="M3.367,0h4.49a3.382,3.382,0,0,1,3.367,3.4V7.926a3.383,3.383,0,0,1-3.367,3.4H3.367A3.383,3.383,0,0,1,0,7.926V3.4A3.382,3.382,0,0,1,3.367,0Z" fill="none" stroke="#f6ea04" stroke-linecap="round" stroke-linejoin="round" stroke-miterlimit="10" stroke-width="1.5"/>
      <path id="Stroke_5" data-name="Stroke 5" d="M3.367,0h4.49a3.382,3.382,0,0,1,3.367,3.4V7.926a3.382,3.382,0,0,1-3.367,3.4H3.367A3.382,3.382,0,0,1,0,7.926V3.4A3.382,3.382,0,0,1,3.367,0Z" transform="translate(0 16.179)" fill="none" stroke="#f6ea04" stroke-linecap="round" stroke-linejoin="round" stroke-miterlimit="10" stroke-width="1.5"/>
      <path id="Stroke_7" data-name="Stroke 7" d="M3.367,0H7.859a3.382,3.382,0,0,1,3.366,3.4V7.926a3.382,3.382,0,0,1-3.366,3.4H3.367A3.382,3.382,0,0,1,0,7.926V3.4A3.382,3.382,0,0,1,3.367,0Z" transform="translate(16.276 16.179)" fill="none" stroke="#f6ea04" stroke-linecap="round" stroke-linejoin="round" stroke-miterlimit="10" stroke-width="1.5"/>
    </g>
  </g>
</svg>
