<svg id="Iconly_Bold_Heart" data-name="Iconly/Bold/Heart" xmlns="http://www.w3.org/2000/svg" width="31.896" height="30.217" viewBox="0 0 31.896 30.217">
  <g id="Heart">
    <path id="Heart-2" data-name="Heart" d="M16,30.217h0l-.413-.254A60.84,60.84,0,0,1,5.429,22.073a20.656,20.656,0,0,1-4.8-7.632A12.284,12.284,0,0,1,.855,6.052,9.692,9.692,0,0,1,6.9.428,7.2,7.2,0,0,1,8.314.1h.191A9.122,9.122,0,0,1,9.846,0h.175A10.018,10.018,0,0,1,12.94.526h.095a.527.527,0,0,1,.144.094,5.391,5.391,0,0,1,1,.415l.606.269a4.19,4.19,0,0,1,.455.3c.091.066.17.123.231.161l.065.038a3.884,3.884,0,0,1,.413.263A9.943,9.943,0,0,1,22.023,0h.07A9.315,9.315,0,0,1,25.06.463a9.589,9.589,0,0,1,5.989,5.594,12.555,12.555,0,0,1,.246,8.385,20.319,20.319,0,0,1-4.8,7.649,61.537,61.537,0,0,1-10.1,7.888l-.4.239ZM23.827,4.959a1.284,1.284,0,0,0-.41,2.5,2.666,2.666,0,0,1,1.707,2.5V10a1.365,1.365,0,0,0,.3.986,1.342,1.342,0,0,0,.909.461,1.311,1.311,0,0,0,1.26-1.209v-.189A5.249,5.249,0,0,0,24.23,5.026,1.247,1.247,0,0,0,23.827,4.959Z" transform="translate(0)" fill="#f6ea04"/>
  </g>
</svg>
