<svg id="Iconly_Light-outline_Home" data-name="Iconly/Light-outline/Home" xmlns="http://www.w3.org/2000/svg" width="28.131" height="29.609" viewBox="0 0 28.131 29.609">
  <g id="Home">
    <path id="Home-2" data-name="Home" d="M22.624,29.609H19.678a2.7,2.7,0,0,1-2.65-2.5l-.015-.208V22.667a.939.939,0,0,0-.8-.919l-.133-.015H12.125a.938.938,0,0,0-.917.8l-.015.135v4.22a1.567,1.567,0,0,1-.029.265l-.015.031-.017.1a2.684,2.684,0,0,1-2.5,2.311l-.193.013H5.789A5.791,5.791,0,0,1,0,24.131v-12.3A4.407,4.407,0,0,1,1.48,8.584L10.7,1.167A5.38,5.38,0,0,1,17.159.989l.239.179,9.015,7.212a4.458,4.458,0,0,1,1.7,3.151l.015.3V23.835A5.8,5.8,0,0,1,22.624,29.609ZM11.9,19.674H16.08a3.014,3.014,0,0,1,2.99,2.77V26.9a.646.646,0,0,0,.518.636h2.753a3.711,3.711,0,0,0,3.715-3.465l.017-.236V11.842a2.4,2.4,0,0,0-.741-1.672l-.192-.164L16.109,2.781a3.3,3.3,0,0,0-2.059-.716,3.342,3.342,0,0,0-1.849.553l-.224.164-9,7.256a2.3,2.3,0,0,0-.9,1.568l-.017.237V23.835a3.717,3.717,0,0,0,3.5,3.7H8.439a.634.634,0,0,0,.65-.53l.031-.267.016-.076v-4A2.978,2.978,0,0,1,11.9,19.674Z" fill="#f6ea04"/>
  </g>
</svg>
